<?xml version="1.0" encoding="UTF-8" standalone="no"?>
<!-- Created with Inkscape (http://www.inkscape.org/) -->

<svg
   xmlns:dc="http://purl.org/dc/elements/1.1/"
   xmlns:cc="http://creativecommons.org/ns#"
   xmlns:rdf="http://www.w3.org/1999/02/22-rdf-syntax-ns#"
   xmlns:svg="http://www.w3.org/2000/svg"
   xmlns="http://www.w3.org/2000/svg"
   xmlns:sodipodi="http://sodipodi.sourceforge.net/DTD/sodipodi-0.dtd"
   xmlns:inkscape="http://www.inkscape.org/namespaces/inkscape"
   width="161.69766mm"
   height="163.43648mm"
   viewBox="0 0 161.69766 163.43648"
   version="1.1"
   id="svg2496"
   inkscape:version="0.92.3 (2405546, 2018-03-11)"
   sodipodi:docname="2.svg">
  <defs
     id="defs2490" />
  <sodipodi:namedview
     id="base"
     pagecolor="#ffffff"
     bordercolor="#666666"
     borderopacity="1.0"
     inkscape:pageopacity="0.0"
     inkscape:pageshadow="2"
     inkscape:zoom="0.35"
     inkscape:cx="400.18792"
     inkscape:cy="313.45"
     inkscape:document-units="mm"
     inkscape:current-layer="layer1"
     showgrid="false"
     inkscape:window-width="1920"
     inkscape:window-height="980"
     inkscape:window-x="0"
     inkscape:window-y="27"
     inkscape:window-maximized="1" />
  <metadata
     id="metadata2493">
    <rdf:RDF>
      <cc:Work
         rdf:about="">
        <dc:format>image/svg+xml</dc:format>
        <dc:type
           rdf:resource="http://purl.org/dc/dcmitype/StillImage" />
        <dc:title></dc:title>
      </cc:Work>
    </rdf:RDF>
  </metadata>
  <g
     inkscape:label="Layer 1"
     inkscape:groupmode="layer"
     id="layer1"
     transform="translate(138.76699,-38.092404)">
    <path
       style="opacity:1;vector-effect:none;fill:#c9f7ef;fill-opacity:1;stroke:none;stroke-width:1.07460594;stroke-linecap:round;stroke-linejoin:round;stroke-miterlimit:4;stroke-dasharray:none;stroke-dashoffset:0;stroke-opacity:1;paint-order:normal"
       d="M -14.557275,179.80435 C 6.3504148,143.59115 34.176217,118.6539 18.180285,84.756432 1.5594448,49.534767 -86.044375,5.7464056 -109.62775,73.940181 c -13.53986,39.151979 -27.76739,60.251819 -9.02632,92.712279 18.741085,32.46054 85.355715,45.61234 104.096795,13.15189 z"
       id="path2473"
       inkscape:connector-curvature="0"
       sodipodi:nodetypes="sssss" />
    <path
       sodipodi:nodetypes="sssss"
       inkscape:connector-curvature="0"
       id="path2060"
       d="m -82.876825,50.790204 c 33.69141,-9.027579 79.8736498,16.201661 91.6531098,49.032296 12.2396302,34.11312 -1.71404,121.22734 -62.1047898,91.87302 -34.67199,-16.85312 -74.767865,-20.72917 -83.795485,-54.42058 -9.02755,-33.69137 20.55576,-77.457153 54.247165,-86.484736 z"
       style="opacity:1;vector-effect:none;fill:#178573;fill-opacity:1;stroke:none;stroke-width:1;stroke-linecap:round;stroke-linejoin:round;stroke-miterlimit:4;stroke-dasharray:none;stroke-dashoffset:0;stroke-opacity:1;paint-order:normal" />
    <rect
       ry="7.1317272"
       rx="7.1317272"
       y="172.17"
       x="-126.31155"
       height="29.358891"
       width="128.90633"
       id="rect2062"
       style="opacity:1;vector-effect:none;fill:#455a64;fill-opacity:1;stroke:none;stroke-width:0.71674788;stroke-linecap:round;stroke-linejoin:round;stroke-miterlimit:4;stroke-dasharray:none;stroke-dashoffset:0;stroke-opacity:1;paint-order:normal" />
    <text
       id="text2066"
       y="189.87703"
       x="-115.01044"
       style="font-style:normal;font-variant:normal;font-weight:normal;font-stretch:normal;font-size:12.72810555px;line-height:1.25;font-family:Harabara;-inkscape-font-specification:Harabara;letter-spacing:0px;word-spacing:0px;fill:#ffffff;fill-opacity:1;stroke:none;stroke-width:0.0954608"
       xml:space="preserve"><tspan
         style="font-style:normal;font-variant:normal;font-weight:normal;font-stretch:normal;font-family:'Avenir LT Std';-inkscape-font-specification:'Avenir LT Std';fill:#ffffff;stroke-width:0.0954608"
         y="189.87703"
         x="-115.01044"
         id="tspan2064"
         sodipodi:role="line">Web Development</tspan></text>
    <polygon
       style="fill:#c9f7ef;fill-opacity:1"
       points="320,319.982 168,319.982 168,262.462 168,191.982 252,191.982 318.08,191.982 368,191.982 368,367.982 "
       id="polygon2079"
       transform="matrix(0.19840636,0,0,0.19840636,-97.523375,85.121832)" />
    <g
       id="g2087"
       transform="matrix(0.19840636,0,0,0.19840636,-97.523375,85.121832)"
       style="fill:#ffffff;fill-opacity:1">
      <path
         inkscape:connector-curvature="0"
         style="fill:#ffffff;fill-opacity:1"
         d="m 168,262.462 v 57.52 c -46.32,0 -87.84,-20.8 -115.68,-53.52 11.04,-4.8 22.16,-9.76 31.84,-14 17.84,-7.92 38.08,-8.08 56,-0.4 l 14.64,6.24 c 4.24,1.84 8.64,3.2 13.2,4.16 z"
         id="path2081" />
      <path
         inkscape:connector-curvature="0"
         style="fill:#ffffff;fill-opacity:1"
         d="m 136.72,58.942 c 0.8,3.28 1.2,6.56 1.2,9.84 0,13.92 -7.2,27.2 -19.6,34.56 -9.2,5.52 -15.76,14.48 -18.4,24.88 l -3.44,14 c -4.88,19.36 -23.12,32.24 -42.96,30.4 -12.48,-1.2 -26.16,-2.4 -37.52,-3.36 0,-0.4 0,-0.88 0,-1.28 0,-71.12 48.96,-130.88 114.96,-147.44 l -2.96,3.44 z"
         id="path2083" />
      <path
         inkscape:connector-curvature="0"
         style="fill:#ffffff;fill-opacity:1"
         d="m 320,167.982 c 0,8.16 -0.64,16.16 -1.92,24 H 252 c -2.72,-10.32 -9.2,-19.28 -18.24,-24.96 l -21.92,-13.6 c -16.32,-10.24 -23.52,-30.32 -17.44,-48.64 l 26.48,-79.36 c 57.84,21.52 99.12,77.28 99.12,142.56 z"
         id="path2085" />
    </g>
    <path
       inkscape:connector-curvature="0"
       style="fill:#1fb299;fill-opacity:1;stroke-width:0.19840635"
       d="m -47.524965,123.21228 h -16.66614 v 13.98368 c -0.90473,-0.19047 -1.77771,-0.4603 -2.61898,-0.82537 l -2.90467,-1.23805 c -3.55543,-1.52376 -7.57117,-1.49202 -11.11073,0.0794 -1.9206,0.84124 -4.12687,1.82534 -6.31727,2.77769 -4.44429,-5.19031 -7.14262,-11.93613 -7.20612,-19.2851 2.2539,0.19047 4.9681,0.42856 7.44421,0.66664 3.93637,0.36507 7.5553,-2.19041 8.52354,-6.03155 l 0.68252,-2.77769 c 0.52377,-2.06342 1.82534,-3.84114 3.65068,-4.93635 2.46024,-1.46027 3.88874,-4.0951 3.88874,-6.856925 0,-0.650772 -0.0793,-1.301544 -0.23809,-1.952319 l -1.73009,-6.936284 0.58727,-0.682517 c 2.34914,-0.587285 4.82526,-0.904735 7.34899,-0.904735 3.6824,0 7.222,0.666647 10.49172,1.872957 l -5.25381,15.745533 c -1.20629,3.6348 0.22221,7.6188 3.46022,9.65048 l 4.34908,2.69833 c 1.79359,1.12695 3.07925,2.90467 3.61893,4.95222 z"
       id="path2089" />
    <g
       id="g2099"
       transform="matrix(0.19840636,0,0,0.19840636,-97.523375,85.121832)"
       style="fill:#34675f;fill-opacity:1">
      <path
         inkscape:connector-curvature="0"
         style="fill:#34675f;fill-opacity:1"
         d="m 368,175.982 h -32.32 c 0.128,-2.664 0.32,-5.32 0.32,-8 0,-69.856 -44.024,-133.176 -109.584,-157.568 -0.136,-0.048 -0.272,-0.08 -0.408,-0.136 -0.024,-0.008 -0.048,-0.024 -0.072,-0.032 -0.024,-0.008 -0.056,-0.008 -0.08,-0.016 -31.52,-11.504 -66.128,-13.36 -98.792,-5.208 -0.072,0.016 -0.144,0.048 -0.224,0.064 -0.088,0.024 -0.168,0.056 -0.256,0.08 C 52.032,24.11 0,90.974 0,167.982 v 1.416 c 0.336,39.448 14.608,77.616 40.136,107.432 0.008,0.008 0.024,0.024 0.032,0.032 0.016,0.016 0.032,0.032 0.048,0.056 31.984,37.536 78.552,59.064 127.784,59.064 h 145.368 l 43.32,43.312 c 3.056,3.064 7.152,4.688 11.312,4.688 2.056,0 4.144,-0.4 6.12,-1.216 5.984,-2.48 9.88,-8.312 9.88,-14.784 v -176 c 0,-8.832 -7.168,-16 -16,-16 z m -64,-8 c 0,2.68 -0.16,5.344 -0.32,8 h -40.84 c -4.72,-9.168 -11.76,-16.968 -20.648,-22.56 L 220.344,139.87 c -10.104,-6.336 -14.528,-18.696 -10.768,-30.024 l 20.88,-62.584 C 275,70.43 304,117.014 304,167.982 Z M 200.488,35.998 179.216,99.742 c -8.424,25.384 1.504,53.032 24.192,67.28 l 14.448,8.96 H 168 c -8.832,0 -16,7.168 -16,16 v 47.736 l -5.536,-2.36 c -21.896,-9.384 -46.968,-9.208 -68.72,0.456 l -12.584,5.544 c -2.56,1.128 -5.272,2.312 -7.904,3.472 C 44.56,229.07 36.472,208.422 33.44,186.846 c 6.208,0.552 12.544,1.136 18.608,1.72 1.8,0.168 3.584,0.248 5.352,0.248 25.712,0 48.2,-17.264 54.624,-42.76 l 3.408,-13.888 c 1.624,-6.4 5.576,-11.768 11.056,-15.056 16.92,-10.04 27.432,-28.56 27.432,-48.32 0,-4.536 -0.56,-9.128 -1.68,-13.712 l -5.336,-21.384 c 17.84,-2.776 36.104,-1.96 53.584,2.304 z M 152,302.982 c -26.504,-3.136 -51.32,-14.12 -71.656,-31.352 l 10.304,-4.536 c 13.72,-6.096 29.456,-6.208 43.232,-0.312 l 14.544,6.2 c 1.144,0.496 2.384,0.88 3.568,1.328 v 28.672 z m -35.912,-260.64 5.088,20.4 c 0.496,2.024 0.744,4.056 0.744,6.04 0,8.52 -4.504,16.496 -11.832,20.84 -12.84,7.704 -21.96,20.016 -25.704,34.776 L 80.968,138.31 C 78.008,150.078 67.016,157.79 55.056,156.694 47.768,155.99 40.12,155.302 32.712,154.646 37.608,104.462 69.824,61.39 116.088,42.342 Z M 352,329.35 331.312,308.67 c -3,-3 -7.072,-4.688 -11.312,-4.688 H 184 v -41.408 c 0,-0.024 0,-0.048 0,-0.08 v -54.512 h 67.968 c 0.008,0 0.016,0 0.024,0 0.008,0 0.024,0 0.032,0 H 352 Z"
         id="path2091" />
      <path
         inkscape:connector-curvature="0"
         style="fill:#34675f;fill-opacity:1"
         d="m 224,239.982 h -8 c -8.832,0 -16,7.168 -16,16 0,8.832 7.168,16 16,16 h 8 c 8.832,0 16,-7.168 16,-16 0,-8.832 -7.168,-16 -16,-16 z"
         id="path2093" />
      <path
         inkscape:connector-curvature="0"
         style="fill:#34675f;fill-opacity:1"
         d="m 248,255.982 c 0,8.832 7.168,16 16,16 h 8 c 8.832,0 16,-7.168 16,-16 0,-8.832 -7.168,-16 -16,-16 h -8 c -8.832,0 -16,7.168 -16,16 z"
         id="path2095" />
      <path
         inkscape:connector-curvature="0"
         style="fill:#34675f;fill-opacity:1"
         d="m 312,271.982 h 8 c 8.832,0 16,-7.168 16,-16 0,-8.832 -7.168,-16 -16,-16 h -8 c -8.832,0 -16,7.168 -16,16 0,8.832 7.168,16 16,16 z"
         id="path2097" />
    </g>
  </g>
</svg>
