<?xml version="1.0" encoding="UTF-8" standalone="no"?>
<!-- Created with Inkscape (http://www.inkscape.org/) -->

<svg
   xmlns:dc="http://purl.org/dc/elements/1.1/"
   xmlns:cc="http://creativecommons.org/ns#"
   xmlns:rdf="http://www.w3.org/1999/02/22-rdf-syntax-ns#"
   xmlns:svg="http://www.w3.org/2000/svg"
   xmlns="http://www.w3.org/2000/svg"
   xmlns:sodipodi="http://sodipodi.sourceforge.net/DTD/sodipodi-0.dtd"
   xmlns:inkscape="http://www.inkscape.org/namespaces/inkscape"
   width="161.19345mm"
   height="162.69272mm"
   viewBox="0 0 161.19345 162.69272"
   version="1.1"
   id="svg2496"
   inkscape:version="0.92.3 (2405546, 2018-03-11)"
   sodipodi:docname="1.svg">
  <defs
     id="defs2490" />
  <sodipodi:namedview
     id="base"
     pagecolor="#ffffff"
     bordercolor="#666666"
     borderopacity="1.0"
     inkscape:pageopacity="0.0"
     inkscape:pageshadow="2"
     inkscape:zoom="0.35"
     inkscape:cx="868.90325"
     inkscape:cy="101.73651"
     inkscape:document-units="mm"
     inkscape:current-layer="layer1"
     showgrid="false"
     inkscape:window-width="1920"
     inkscape:window-height="980"
     inkscape:window-x="0"
     inkscape:window-y="27"
     inkscape:window-maximized="1" />
  <metadata
     id="metadata2493">
    <rdf:RDF>
      <cc:Work
         rdf:about="">
        <dc:format>image/svg+xml</dc:format>
        <dc:type
           rdf:resource="http://purl.org/dc/dcmitype/StillImage" />
        <dc:title></dc:title>
      </cc:Work>
    </rdf:RDF>
  </metadata>
  <g
     inkscape:label="Layer 1"
     inkscape:groupmode="layer"
     id="layer1"
     transform="translate(262.78125,-13.058405)">
    <g
       transform="matrix(0.35277777,0,0,-0.35277777,1247.9949,166.94602)"
       id="g2488">
      <path
         style="opacity:1;vector-effect:none;fill:#c9f7ef;fill-opacity:1;stroke:none;stroke-width:3.04612732;stroke-linecap:round;stroke-linejoin:round;stroke-miterlimit:4;stroke-dasharray:none;stroke-dashoffset:0;stroke-opacity:1;paint-order:normal"
         d="m -3854.254,274.39971 c -83.8147,83.8146 -131.6796,178.29879 -236.2284,159.37023 -108.633,-19.66808 -292.7995,-227.40664 -123.3832,-342.01031 97.2667,-65.797211 144.6011,-120.233063 247.2293,-92.7338871 102.6284,27.4991481 187.5113,200.2448471 112.3823,275.3739671 z"
         id="path2471"
         inkscape:connector-curvature="0"
         sodipodi:nodetypes="sssss" />
      <path
         sodipodi:nodetypes="sssss"
         inkscape:connector-curvature="0"
         id="path2021"
         d="m -4074.7214,388.35744 c -95.5248,-55.1513 -191.9816,-75.4188 -200.148,-173.9531 -8.4853,-102.3834 133.8871,-317.9581 277.7043,-193.278 82.5695,71.5823 142.9005,101.0187 142.9005,199.8909 0,98.8721 -134.831,216.7763 -220.4568,167.3402 z"
         style="opacity:1;vector-effect:none;fill:#178573;fill-opacity:1;stroke:none;stroke-width:2.83464575;stroke-linecap:round;stroke-linejoin:round;stroke-miterlimit:4;stroke-dasharray:none;stroke-dashoffset:0;stroke-opacity:1;paint-order:normal" />
      <rect
         ry="20.215919"
         rx="20.215919"
         transform="scale(1,-1)"
         y="-58.262718"
         x="-4237.2881"
         height="83.222054"
         width="329.44919"
         id="rect2024"
         style="opacity:1;vector-effect:none;fill:#455a64;fill-opacity:1;stroke:none;stroke-width:1.92918086;stroke-linecap:round;stroke-linejoin:round;stroke-miterlimit:4;stroke-dasharray:none;stroke-dashoffset:0;stroke-opacity:1;paint-order:normal" />
      <text
         transform="scale(1,-1)"
         id="text2028"
         y="-8.0695391"
         x="-4203.0063"
         style="font-style:normal;font-variant:normal;font-weight:normal;font-stretch:normal;font-size:36.07966995px;line-height:1.25;font-family:Harabara;-inkscape-font-specification:Harabara;letter-spacing:0px;word-spacing:0px;fill:#ffffff;fill-opacity:1;stroke:none;stroke-width:0.27059755"
         xml:space="preserve"><tspan
           style="font-style:normal;font-variant:normal;font-weight:normal;font-stretch:normal;font-family:'Avenir LT Std';-inkscape-font-specification:'Avenir LT Std';fill:#ffffff;stroke-width:0.27059755"
           y="-8.0695391"
           x="-4203.0063"
           id="tspan2026"
           sodipodi:role="line">Graphic Designs</tspan></text>
      <path
         id="path2231"
         d="m -3962.0796,164.51278 v -39.03154 h -39.0315 v 39.03154 z m 0,0"
         inkscape:connector-curvature="0"
         style="fill:#c9f7ef;fill-opacity:1;stroke-width:0.60986781" />
      <path
         id="path2233"
         d="m -4049.9005,250.08961 v -17.27164 h -39.0316 v 39.03154 h 39.0316 z m 0,0"
         inkscape:connector-curvature="0"
         style="fill:#ffa8a7;fill-opacity:1;stroke-width:0.60986781" />
      <path
         id="path2235"
         d="m -4137.7215,164.51278 v -39.03154 h -39.0315 v 39.03154 z m 0,0"
         inkscape:connector-curvature="0"
         style="fill:#c9f7ef;fill-opacity:1;stroke-width:0.60986781" />
      <path
         id="path2237"
         d="m -4176.753,115.72335 h 39.0315 c 5.3864,0 9.7579,4.37152 9.7579,9.75789 v 39.03154 c 0,5.38637 -4.3715,9.75788 -9.7579,9.75788 h -9.0932 c 3.4829,28.27309 21.8576,52.09843 48.1248,62.57339 v -4.02608 c 0,-5.38637 4.3715,-9.75789 9.7578,-9.75789 h 39.0316 c 5.3863,0 9.7579,4.37152 9.7579,9.75789 v 4.02608 c 26.2624,-10.47496 44.6418,-34.3003 48.1247,-62.57339 h -9.0932 c -5.3864,0 -9.7579,-4.37151 -9.7579,-9.75788 v -39.03154 c 0,-5.38637 4.3715,-9.75789 9.7579,-9.75789 h 39.0315 c 5.3864,0 9.7579,4.37152 9.7579,9.75789 v 39.03154 c 0,5.38637 -4.3715,9.75788 -9.7579,9.75788 h -10.2796 c -2.7182,27.74184 -16.8761,52.26758 -38.3383,68.30519 h 22.0577 c 3.3853,-5.80565 9.6102,-9.75788 16.8024,-9.75788 10.7631,0 19.5157,8.75255 19.5157,19.51577 0,10.76321 -8.7526,19.51577 -19.5157,19.51577 -7.1922,0 -13.4171,-3.95223 -16.8024,-9.75789 h -51.5028 v 9.75789 c 0,5.38637 -4.3716,9.75788 -9.7579,9.75788 h -39.0316 c -5.3863,0 -9.7578,-4.37151 -9.7578,-9.75788 v -9.75789 h -51.5029 c -3.3853,5.80566 -9.6102,9.75789 -16.8023,9.75789 -10.7632,0 -19.5158,-8.75256 -19.5158,-19.51577 0,-10.76322 8.7526,-19.51577 19.5158,-19.51577 7.1921,0 13.417,3.95223 16.8023,9.75788 h 22.0576 c -21.4621,-16.03761 -35.62,-40.56335 -38.3382,-68.30519 h -10.2796 c -5.3864,0 -9.7579,-4.37151 -9.7579,-9.75788 v -39.03154 c 0,-5.38637 4.3715,-9.75789 9.7579,-9.75789 z m 204.9156,19.51577 h -19.5158 v 19.51577 h 19.5158 z m -107.3368,126.8525 h 19.5158 v -11.80665 -0.0239 -7.68528 h -19.5158 v 7.68528 c 0,0.01 0,0.0143 0,0.0239 z m -97.5788,-9.75788 9.7531,0.0286 c 0,-0.01 0.01,-0.0238 0.01,-0.0286 z m 9.7579,-97.57885 h 19.5157 v -19.51577 h -19.5157 z m 0,0"
         inkscape:connector-curvature="0"
         style="fill:#34675f;fill-opacity:1;stroke-width:0.60986781" />
    </g>
  </g>
</svg>
