<?xml version="1.0" encoding="UTF-8" standalone="no"?>
<!-- Created with Inkscape (http://www.inkscape.org/) -->

<svg
   xmlns:dc="http://purl.org/dc/elements/1.1/"
   xmlns:cc="http://creativecommons.org/ns#"
   xmlns:rdf="http://www.w3.org/1999/02/22-rdf-syntax-ns#"
   xmlns:svg="http://www.w3.org/2000/svg"
   xmlns="http://www.w3.org/2000/svg"
   xmlns:sodipodi="http://sodipodi.sourceforge.net/DTD/sodipodi-0.dtd"
   xmlns:inkscape="http://www.inkscape.org/namespaces/inkscape"
   width="157.57545mm"
   height="159.02411mm"
   viewBox="0 0 157.57545 159.02411"
   version="1.1"
   id="svg2496"
   inkscape:version="0.92.3 (2405546, 2018-03-11)"
   sodipodi:docname="3.svg">
  <defs
     id="defs2490" />
  <sodipodi:namedview
     id="base"
     pagecolor="#ffffff"
     bordercolor="#666666"
     borderopacity="1.0"
     inkscape:pageopacity="0.0"
     inkscape:pageshadow="2"
     inkscape:zoom="0.35"
     inkscape:cx="403.68259"
     inkscape:cy="176.82513"
     inkscape:document-units="mm"
     inkscape:current-layer="layer1"
     showgrid="false"
     inkscape:window-width="1920"
     inkscape:window-height="980"
     inkscape:window-x="0"
     inkscape:window-y="27"
     inkscape:window-maximized="1" />
  <metadata
     id="metadata2493">
    <rdf:RDF>
      <cc:Work
         rdf:about="">
        <dc:format>image/svg+xml</dc:format>
        <dc:type
           rdf:resource="http://purl.org/dc/dcmitype/StillImage" />
        <dc:title></dc:title>
      </cc:Work>
    </rdf:RDF>
  </metadata>
  <g
     inkscape:label="Layer 1"
     inkscape:groupmode="layer"
     id="layer1"
     transform="translate(139.69162,-6.3561103)">
    <g
       transform="matrix(0.35277777,0,0,-0.35277777,922.29853,156.57512)"
       id="g3243">
      <path
         style="opacity:1;vector-effect:none;fill:#c9f7ef;fill-opacity:1;stroke:none;stroke-width:3.04612732;stroke-linecap:round;stroke-linejoin:round;stroke-miterlimit:4;stroke-dasharray:none;stroke-dashoffset:0;stroke-opacity:1;paint-order:normal"
         d="m -2596.2973,113.55795 c 0,118.53184 32.9647,219.18781 -54.3469,279.73047 -90.7226,62.90769 -367.8413,46.23976 -329.0829,-154.5927 22.2523,-115.30357 17.2308,-187.266037 109.2447,-240.3902756 92.0141,-53.1244144 274.1851,9.0039944 274.1851,115.2525056 z"
         id="path2475"
         inkscape:connector-curvature="0"
         sodipodi:nodetypes="sssss" />
      <path
         sodipodi:nodetypes="sssss"
         inkscape:connector-curvature="0"
         id="path2199"
         d="m -2966.6014,315.24954 c 62.8136,76.3555 210.9013,94.30243 292.1839,38.01008 84.4578,-58.49134 195.8798,-282.384175 8.2265,-314.239804 -107.737,-18.289234 -206.5902,-75.445278 -282.9457,-12.631685 -76.3555,62.813496 -80.2781,212.505989 -17.4647,288.861409 z"
         style="opacity:1;vector-effect:none;fill:#178573;fill-opacity:1;stroke:none;stroke-width:2.83464575;stroke-linecap:round;stroke-linejoin:round;stroke-miterlimit:4;stroke-dasharray:none;stroke-dashoffset:0;stroke-opacity:1;paint-order:normal" />
      <rect
         ry="20.215919"
         rx="20.215919"
         transform="scale(1,-1)"
         y="-58.262718"
         x="-2976.8777"
         height="83.222054"
         width="365.40378"
         id="rect2201"
         style="opacity:1;vector-effect:none;fill:#455a64;fill-opacity:1;stroke:none;stroke-width:2.03172636;stroke-linecap:round;stroke-linejoin:round;stroke-miterlimit:4;stroke-dasharray:none;stroke-dashoffset:0;stroke-opacity:1;paint-order:normal" />
      <text
         transform="scale(1,-1)"
         id="text2205"
         y="-8.0695391"
         x="-2847.4661"
         style="font-style:normal;font-variant:normal;font-weight:normal;font-stretch:normal;font-size:36.07966995px;line-height:1.25;font-family:Harabara;-inkscape-font-specification:Harabara;letter-spacing:0px;word-spacing:0px;fill:#ffffff;fill-opacity:1;stroke:none;stroke-width:0.27059755"
         xml:space="preserve"><tspan
           style="font-style:normal;font-variant:normal;font-weight:normal;font-stretch:normal;font-family:'Avenir LT Std';-inkscape-font-specification:'Avenir LT Std';fill:#ffffff;stroke-width:0.27059755"
           y="-8.0695391"
           x="-2847.4661"
           id="tspan2203"
           sodipodi:role="line">UI/UX </tspan></text>
      <path
         id="path2270"
         d="m -2812.857,292.91648 h 107.7718 V 185.14467 h -107.7718 z m 0,0"
         inkscape:connector-curvature="0"
         style="fill:#e0f7fa;stroke-width:0.48112416" />
      <path
         id="path2272"
         d="m -2874.4409,231.33259 h 107.7718 V 123.56078 h -107.7718 z m 0,0"
         inkscape:connector-curvature="0"
         style="fill:#e0f7fa;stroke-width:0.48112416" />
      <path
         id="path2274"
         d="m -2812.857,231.33259 h 46.1879 v -46.18792 h -46.1879 z m 0,0"
         inkscape:connector-curvature="0"
         style="fill:#4dd0e1;stroke-width:0.48112416" />
      <g
         transform="matrix(0.48112417,0,0,-0.48112417,-2882.1389,300.61447)"
         id="g2298"
         style="fill:#34675f;fill-opacity:1">
        <path
           style="fill:#34675f;fill-opacity:1"
           id="path2276"
           d="m 240,320 c -8.83203,0 -16,7.16797 -16,16 v 16 h -16 c -8.83203,0 -16,7.16797 -16,16 0,8.83203 7.16797,16 16,16 h 32 c 8.83203,0 16,-7.16797 16,-16 v -32 c 0,-8.83203 -7.16797,-16 -16,-16 z m 0,0"
           inkscape:connector-curvature="0" />
        <path
           style="fill:#34675f;fill-opacity:1"
           id="path2278"
           d="m 112,384 h 32 c 8.83203,0 16,-7.16797 16,-16 0,-8.83203 -7.16797,-16 -16,-16 h -32 c -8.83203,0 -16,7.16797 -16,16 0,8.83203 7.16797,16 16,16 z m 0,0"
           inkscape:connector-curvature="0" />
        <path
           style="fill:#34675f;fill-opacity:1"
           id="path2280-7"
           d="m 16,192 c 8.832031,0 16,-7.16797 16,-16 v -16 h 16 c 8.832031,0 16,-7.16797 16,-16 0,-8.83203 -7.167969,-16 -16,-16 H 16 c -8.832031,0 -16,7.16797 -16,16 v 32 c 0,8.83203 7.167969,16 16,16 z m 0,0"
           inkscape:connector-curvature="0" />
        <path
           style="fill:#34675f;fill-opacity:1"
           id="path2282"
           d="m 16,288 c 8.832031,0 16,-7.16797 16,-16 v -32 c 0,-8.83203 -7.167969,-16 -16,-16 -8.832031,0 -16,7.16797 -16,16 v 32 c 0,8.83203 7.167969,16 16,16 z m 0,0"
           inkscape:connector-curvature="0" />
        <path
           style="fill:#34675f;fill-opacity:1"
           id="path2284-5"
           d="m 16,384 h 32 c 8.832031,0 16,-7.16797 16,-16 0,-8.83203 -7.167969,-16 -16,-16 H 32 v -16 c 0,-8.83203 -7.167969,-16 -16,-16 -8.832031,0 -16,7.16797 -16,16 v 32 c 0,8.83203 7.167969,16 16,16 z m 0,0"
           inkscape:connector-curvature="0" />
        <path
           style="fill:#34675f;fill-opacity:1"
           id="path2286"
           d="m 128,128 h -16 c -8.83203,0 -16,7.16797 -16,16 0,8.83203 7.16797,16 16,16 h 16 v 80 c 0,8.83203 7.16797,16 16,16 h 80 v 16 c 0,8.83203 7.16797,16 16,16 8.83203,0 16,-7.16797 16,-16 v -16 h 16 c 8.83203,0 16,-7.16797 16,-16 0,-8.83203 -7.16797,-16 -16,-16 h -16 v -80 c 0,-8.83203 -7.16797,-16 -16,-16 h -80 v -16 c 0,-8.83203 -7.16797,-16 -16,-16 -8.83203,0 -16,7.16797 -16,16 z m 96,96 h -64 v -64 h 64 z m 0,0"
           inkscape:connector-curvature="0" />
        <path
           style="fill:#34675f;fill-opacity:1"
           id="path2288"
           d="m 144,64 c 8.83203,0 16,-7.167969 16,-16 V 32 h 16 c 8.83203,0 16,-7.167969 16,-16 0,-8.832031 -7.16797,-16 -16,-16 h -32 c -8.83203,0 -16,7.167969 -16,16 v 32 c 0,8.832031 7.16797,16 16,16 z m 0,0"
           inkscape:connector-curvature="0" />
        <path
           style="fill:#34675f;fill-opacity:1"
           id="path2290"
           d="m 272,32 c 8.83203,0 16,-7.167969 16,-16 0,-8.832031 -7.16797,-16 -16,-16 h -32 c -8.83203,0 -16,7.167969 -16,16 0,8.832031 7.16797,16 16,16 z m 0,0"
           inkscape:connector-curvature="0" />
        <path
           style="fill:#34675f;fill-opacity:1"
           id="path2292"
           d="m 368,192 c -8.83203,0 -16,7.16797 -16,16 v 16 h -16 c -8.83203,0 -16,7.16797 -16,16 0,8.83203 7.16797,16 16,16 h 32 c 8.83203,0 16,-7.16797 16,-16 v -32 c 0,-8.83203 -7.16797,-16 -16,-16 z m 0,0"
           inkscape:connector-curvature="0" />
        <path
           style="fill:#34675f;fill-opacity:1"
           id="path2294-3"
           d="m 368,96 c -8.83203,0 -16,7.16797 -16,16 v 32 c 0,8.83203 7.16797,16 16,16 8.83203,0 16,-7.16797 16,-16 v -32 c 0,-8.83203 -7.16797,-16 -16,-16 z m 0,0"
           inkscape:connector-curvature="0" />
        <path
           style="fill:#34675f;fill-opacity:1"
           id="path2296"
           d="m 368,0 h -32 c -8.83203,0 -16,7.167969 -16,16 0,8.832031 7.16797,16 16,16 h 16 v 16 c 0,8.832031 7.16797,16 16,16 8.83203,0 16,-7.167969 16,-16 V 16 C 384,7.167969 376.83203,0 368,0 Z m 0,0"
           inkscape:connector-curvature="0" />
      </g>
    </g>
  </g>
</svg>
